<mxfile host="65bd71144e">
    <diagram id="NiB2z0x7Vvn8BqJxRlCL" name="第 1 页">
        <mxGraphModel dx="2053" dy="1040" grid="1" gridSize="10" guides="1" tooltips="1" connect="1" arrows="1" fold="1" page="1" pageScale="1" pageWidth="827" pageHeight="1169" math="0" shadow="0">
            <root>
                <mxCell id="0"/>
                <mxCell id="1" parent="0"/>
                <mxCell id="136" style="edgeStyle=none;rounded=1;html=1;entryX=0.75;entryY=1;entryDx=0;entryDy=0;fontSize=12;strokeColor=#f0f0f0;" edge="1" parent="1" source="121" target="77">
                    <mxGeometry relative="1" as="geometry"/>
                </mxCell>
                <mxCell id="51" style="edgeStyle=none;rounded=1;html=1;entryX=0.5;entryY=1;entryDx=0;entryDy=0;strokeColor=#f0f0f0;" edge="1" parent="1" source="45" target="33">
                    <mxGeometry relative="1" as="geometry"/>
                </mxCell>
                <mxCell id="2" value="用户" style="rounded=1;whiteSpace=wrap;html=1;" vertex="1" parent="1">
                    <mxGeometry x="240" y="525" width="120" height="60" as="geometry"/>
                </mxCell>
                <mxCell id="3" value="用户名" style="ellipse;whiteSpace=wrap;html=1;" vertex="1" parent="1">
                    <mxGeometry x="60" y="350" width="120" height="80" as="geometry"/>
                </mxCell>
                <mxCell id="4" value="密码" style="ellipse;whiteSpace=wrap;html=1;" vertex="1" parent="1">
                    <mxGeometry x="50" y="440" width="120" height="80" as="geometry"/>
                </mxCell>
                <mxCell id="10" value="&lt;u&gt;ID&lt;/u&gt;" style="ellipse;whiteSpace=wrap;html=1;" vertex="1" parent="1">
                    <mxGeometry x="50" y="540" width="120" height="80" as="geometry"/>
                </mxCell>
                <mxCell id="13" value="用户类型" style="ellipse;whiteSpace=wrap;html=1;" vertex="1" parent="1">
                    <mxGeometry x="90" y="630" width="120" height="80" as="geometry"/>
                </mxCell>
                <mxCell id="15" value="个人信息id" style="ellipse;whiteSpace=wrap;html=1;" vertex="1" parent="1">
                    <mxGeometry x="190" y="710" width="120" height="80" as="geometry"/>
                </mxCell>
                <mxCell id="18" value="导师" style="rounded=1;whiteSpace=wrap;html=1;" vertex="1" parent="1">
                    <mxGeometry x="855" y="200" width="120" height="60" as="geometry"/>
                </mxCell>
                <mxCell id="19" value="是" style="rhombus;whiteSpace=wrap;html=1;direction=east;rotation=0;" vertex="1" parent="1">
                    <mxGeometry x="390" y="165" width="140" height="80" as="geometry"/>
                </mxCell>
                <mxCell id="22" value="" style="endArrow=none;html=1;strokeColor=#f0f0f0;exitX=1;exitY=0.5;exitDx=0;exitDy=0;entryX=0.25;entryY=0;entryDx=0;entryDy=0;" edge="1" parent="1" source="3" target="2">
                    <mxGeometry width="50" height="50" relative="1" as="geometry">
                        <mxPoint x="280" y="420" as="sourcePoint"/>
                        <mxPoint x="330" y="370" as="targetPoint"/>
                    </mxGeometry>
                </mxCell>
                <mxCell id="24" value="" style="endArrow=none;html=1;strokeColor=#f0f0f0;exitX=1.019;exitY=0.662;exitDx=0;exitDy=0;exitPerimeter=0;entryX=0;entryY=0;entryDx=0;entryDy=0;" edge="1" parent="1" source="4" target="2">
                    <mxGeometry width="50" height="50" relative="1" as="geometry">
                        <mxPoint x="560" y="300" as="sourcePoint"/>
                        <mxPoint x="610" y="250" as="targetPoint"/>
                    </mxGeometry>
                </mxCell>
                <mxCell id="25" value="" style="endArrow=none;html=1;strokeColor=#f0f0f0;exitX=1;exitY=0.5;exitDx=0;exitDy=0;entryX=0;entryY=0.25;entryDx=0;entryDy=0;" edge="1" parent="1" source="10" target="2">
                    <mxGeometry width="50" height="50" relative="1" as="geometry">
                        <mxPoint x="560" y="300" as="sourcePoint"/>
                        <mxPoint x="610" y="250" as="targetPoint"/>
                    </mxGeometry>
                </mxCell>
                <mxCell id="26" value="" style="endArrow=none;html=1;strokeColor=#f0f0f0;exitX=1;exitY=0;exitDx=0;exitDy=0;entryX=0;entryY=0.5;entryDx=0;entryDy=0;" edge="1" parent="1" source="13" target="2">
                    <mxGeometry width="50" height="50" relative="1" as="geometry">
                        <mxPoint x="560" y="660" as="sourcePoint"/>
                        <mxPoint x="610" y="610" as="targetPoint"/>
                    </mxGeometry>
                </mxCell>
                <mxCell id="27" value="" style="endArrow=none;html=1;strokeColor=#f0f0f0;exitX=0.5;exitY=0;exitDx=0;exitDy=0;entryX=0;entryY=1;entryDx=0;entryDy=0;" edge="1" parent="1" source="15" target="2">
                    <mxGeometry width="50" height="50" relative="1" as="geometry">
                        <mxPoint x="560" y="660" as="sourcePoint"/>
                        <mxPoint x="610" y="610" as="targetPoint"/>
                    </mxGeometry>
                </mxCell>
                <mxCell id="28" value="" style="endArrow=none;html=1;strokeColor=#f0f0f0;exitX=0.75;exitY=0;exitDx=0;exitDy=0;entryX=0;entryY=0.5;entryDx=0;entryDy=0;strokeWidth=4;" edge="1" parent="1" source="2" target="19">
                    <mxGeometry width="50" height="50" relative="1" as="geometry">
                        <mxPoint x="560" y="540" as="sourcePoint"/>
                        <mxPoint x="610" y="490" as="targetPoint"/>
                    </mxGeometry>
                </mxCell>
                <mxCell id="29" value="1&lt;br style=&quot;font-size: 20px;&quot;&gt;" style="edgeLabel;html=1;align=center;verticalAlign=middle;resizable=0;points=[];fontSize=20;" vertex="1" connectable="0" parent="28">
                    <mxGeometry x="0.3196" relative="1" as="geometry">
                        <mxPoint y="1" as="offset"/>
                    </mxGeometry>
                </mxCell>
                <mxCell id="30" value="1" style="endArrow=none;html=1;strokeColor=#f0f0f0;entryX=1;entryY=0.5;entryDx=0;entryDy=0;exitX=0;exitY=0.5;exitDx=0;exitDy=0;" edge="1" parent="1" source="18" target="19">
                    <mxGeometry width="50" height="50" relative="1" as="geometry">
                        <mxPoint x="560" y="530" as="sourcePoint"/>
                        <mxPoint x="610" y="480" as="targetPoint"/>
                    </mxGeometry>
                </mxCell>
                <mxCell id="31" value="是" style="rhombus;whiteSpace=wrap;html=1;" vertex="1" parent="1">
                    <mxGeometry x="480" y="670" width="130" height="80" as="geometry"/>
                </mxCell>
                <mxCell id="33" value="学生" style="rounded=1;whiteSpace=wrap;html=1;" vertex="1" parent="1">
                    <mxGeometry x="802.5" y="700" width="120" height="60" as="geometry"/>
                </mxCell>
                <mxCell id="36" value="1" style="endArrow=none;html=1;strokeColor=#f0f0f0;exitX=0.75;exitY=1;exitDx=0;exitDy=0;entryX=0;entryY=0.5;entryDx=0;entryDy=0;fontSize=20;" edge="1" parent="1" source="2" target="31">
                    <mxGeometry width="50" height="50" relative="1" as="geometry">
                        <mxPoint x="520" y="480" as="sourcePoint"/>
                        <mxPoint x="570" y="430" as="targetPoint"/>
                    </mxGeometry>
                </mxCell>
                <mxCell id="38" value="1" style="endArrow=none;html=1;strokeColor=#f0f0f0;entryX=0;entryY=0.5;entryDx=0;entryDy=0;exitX=1;exitY=0.5;exitDx=0;exitDy=0;" edge="1" parent="1" source="31" target="33">
                    <mxGeometry width="50" height="50" relative="1" as="geometry">
                        <mxPoint x="550" y="780" as="sourcePoint"/>
                        <mxPoint x="600" y="730" as="targetPoint"/>
                    </mxGeometry>
                </mxCell>
                <mxCell id="50" style="edgeStyle=none;rounded=1;html=1;entryX=0;entryY=1;entryDx=0;entryDy=0;strokeColor=#f0f0f0;" edge="1" parent="1" source="40" target="33">
                    <mxGeometry relative="1" as="geometry"/>
                </mxCell>
                <mxCell id="40" value="&lt;u&gt;id&lt;/u&gt;" style="ellipse;whiteSpace=wrap;html=1;" vertex="1" parent="1">
                    <mxGeometry x="660" y="760" width="90" height="40" as="geometry"/>
                </mxCell>
                <mxCell id="49" style="edgeStyle=none;rounded=1;html=1;entryX=0.25;entryY=1;entryDx=0;entryDy=0;strokeColor=#f0f0f0;" edge="1" parent="1" source="41" target="33">
                    <mxGeometry relative="1" as="geometry"/>
                </mxCell>
                <mxCell id="41" value="性别" style="ellipse;whiteSpace=wrap;html=1;" vertex="1" parent="1">
                    <mxGeometry x="710" y="810" width="80" height="40" as="geometry"/>
                </mxCell>
                <mxCell id="48" style="edgeStyle=none;rounded=1;html=1;entryX=0.667;entryY=1;entryDx=0;entryDy=0;entryPerimeter=0;strokeColor=#f0f0f0;" edge="1" parent="1" source="42" target="33">
                    <mxGeometry relative="1" as="geometry"/>
                </mxCell>
                <mxCell id="42" value="专业" style="ellipse;whiteSpace=wrap;html=1;" vertex="1" parent="1">
                    <mxGeometry x="840" y="880" width="80" height="50" as="geometry"/>
                </mxCell>
                <mxCell id="47" style="edgeStyle=none;rounded=1;html=1;exitX=0;exitY=1;exitDx=0;exitDy=0;entryX=0.75;entryY=1;entryDx=0;entryDy=0;strokeColor=#f0f0f0;" edge="1" parent="1" source="43" target="33">
                    <mxGeometry relative="1" as="geometry"/>
                </mxCell>
                <mxCell id="43" value="班级" style="ellipse;whiteSpace=wrap;html=1;" vertex="1" parent="1">
                    <mxGeometry x="940" y="885" width="90" height="50" as="geometry"/>
                </mxCell>
                <mxCell id="53" style="edgeStyle=none;rounded=1;html=1;entryX=1;entryY=0.75;entryDx=0;entryDy=0;strokeColor=#f0f0f0;" edge="1" parent="1" source="44" target="33">
                    <mxGeometry relative="1" as="geometry"/>
                </mxCell>
                <mxCell id="44" value="电话号码" style="ellipse;whiteSpace=wrap;html=1;" vertex="1" parent="1">
                    <mxGeometry x="1091" y="800" width="90" height="55" as="geometry"/>
                </mxCell>
                <mxCell id="45" value="备注" style="ellipse;whiteSpace=wrap;html=1;" vertex="1" parent="1">
                    <mxGeometry x="760" y="855" width="80" height="40" as="geometry"/>
                </mxCell>
                <mxCell id="52" style="edgeStyle=none;rounded=1;html=1;entryX=1;entryY=1;entryDx=0;entryDy=0;strokeColor=#f0f0f0;" edge="1" parent="1" source="46" target="33">
                    <mxGeometry relative="1" as="geometry"/>
                </mxCell>
                <mxCell id="46" value="电子邮箱" style="ellipse;whiteSpace=wrap;html=1;" vertex="1" parent="1">
                    <mxGeometry x="1030" y="855" width="100" height="50" as="geometry"/>
                </mxCell>
                <mxCell id="71" style="edgeStyle=none;rounded=1;html=1;entryX=1;entryY=0;entryDx=0;entryDy=0;strokeColor=#f0f0f0;" edge="1" parent="1" source="55" target="18">
                    <mxGeometry relative="1" as="geometry"/>
                </mxCell>
                <mxCell id="55" value="姓名" style="ellipse;whiteSpace=wrap;html=1;" vertex="1" parent="1">
                    <mxGeometry x="1031" y="110" width="95" height="50" as="geometry"/>
                </mxCell>
                <mxCell id="66" style="edgeStyle=none;rounded=1;html=1;entryX=0;entryY=0.25;entryDx=0;entryDy=0;strokeColor=#f0f0f0;" edge="1" parent="1" source="56" target="18">
                    <mxGeometry relative="1" as="geometry"/>
                </mxCell>
                <mxCell id="56" value="&lt;u&gt;id&lt;/u&gt;" style="ellipse;whiteSpace=wrap;html=1;" vertex="1" parent="1">
                    <mxGeometry x="685" y="140" width="80" height="50" as="geometry"/>
                </mxCell>
                <mxCell id="72" style="edgeStyle=none;rounded=1;html=1;entryX=1;entryY=0.5;entryDx=0;entryDy=0;strokeColor=#f0f0f0;" edge="1" parent="1" source="57" target="18">
                    <mxGeometry relative="1" as="geometry"/>
                </mxCell>
                <mxCell id="57" value="性别" style="ellipse;whiteSpace=wrap;html=1;" vertex="1" parent="1">
                    <mxGeometry x="1065" y="170" width="90" height="50" as="geometry"/>
                </mxCell>
                <mxCell id="74" style="edgeStyle=none;rounded=1;html=1;entryX=0.5;entryY=0;entryDx=0;entryDy=0;strokeColor=#f0f0f0;exitX=0.5;exitY=1;exitDx=0;exitDy=0;" edge="1" parent="1" source="58" target="18">
                    <mxGeometry relative="1" as="geometry">
                        <mxPoint x="928" y="80" as="sourcePoint"/>
                    </mxGeometry>
                </mxCell>
                <mxCell id="58" value="电话号码" style="ellipse;whiteSpace=wrap;html=1;" vertex="1" parent="1">
                    <mxGeometry x="885" y="10" width="90" height="55" as="geometry"/>
                </mxCell>
                <mxCell id="70" style="edgeStyle=none;rounded=1;html=1;entryX=0.75;entryY=0;entryDx=0;entryDy=0;strokeColor=#f0f0f0;" edge="1" parent="1" source="59" target="18">
                    <mxGeometry relative="1" as="geometry"/>
                </mxCell>
                <mxCell id="59" value="电子邮箱" style="ellipse;whiteSpace=wrap;html=1;" vertex="1" parent="1">
                    <mxGeometry x="942.5" y="85" width="100" height="50" as="geometry"/>
                </mxCell>
                <mxCell id="61" style="edgeStyle=none;rounded=1;html=1;entryX=1;entryY=0.5;entryDx=0;entryDy=0;strokeColor=#f0f0f0;" edge="1" parent="1" source="60" target="33">
                    <mxGeometry relative="1" as="geometry"/>
                </mxCell>
                <mxCell id="60" value="姓名" style="ellipse;whiteSpace=wrap;html=1;" vertex="1" parent="1">
                    <mxGeometry x="1091" y="730" width="99" height="60" as="geometry"/>
                </mxCell>
                <mxCell id="73" style="edgeStyle=none;rounded=1;html=1;entryX=0.112;entryY=-0.029;entryDx=0;entryDy=0;entryPerimeter=0;strokeColor=#f0f0f0;" edge="1" parent="1" source="63" target="18">
                    <mxGeometry relative="1" as="geometry"/>
                </mxCell>
                <mxCell id="63" value="学历" style="ellipse;whiteSpace=wrap;html=1;" vertex="1" parent="1">
                    <mxGeometry x="755" y="40" width="110" height="50" as="geometry"/>
                </mxCell>
                <mxCell id="68" style="edgeStyle=none;rounded=1;html=1;entryX=0;entryY=0;entryDx=0;entryDy=0;strokeColor=#f0f0f0;" edge="1" parent="1" source="64" target="18">
                    <mxGeometry relative="1" as="geometry"/>
                </mxCell>
                <mxCell id="64" value="职称" style="ellipse;whiteSpace=wrap;html=1;" vertex="1" parent="1">
                    <mxGeometry x="737.5" y="100" width="95" height="40" as="geometry"/>
                </mxCell>
                <mxCell id="69" style="edgeStyle=none;rounded=1;html=1;entryX=0.25;entryY=0;entryDx=0;entryDy=0;strokeColor=#f0f0f0;" edge="1" parent="1" source="65" target="18">
                    <mxGeometry relative="1" as="geometry"/>
                </mxCell>
                <mxCell id="65" value="研究方向" style="ellipse;whiteSpace=wrap;html=1;" vertex="1" parent="1">
                    <mxGeometry x="832.5" y="90" width="110" height="50" as="geometry"/>
                </mxCell>
                <mxCell id="76" value="申报" style="rhombus;whiteSpace=wrap;html=1;" vertex="1" parent="1">
                    <mxGeometry x="1090" y="320" width="121" height="80" as="geometry"/>
                </mxCell>
                <mxCell id="77" value="论文题目" style="rounded=1;whiteSpace=wrap;html=1;" vertex="1" parent="1">
                    <mxGeometry x="1350" y="440" width="120" height="60" as="geometry"/>
                </mxCell>
                <mxCell id="81" value="" style="endArrow=none;html=1;strokeColor=#f0f0f0;entryX=0.5;entryY=1;entryDx=0;entryDy=0;exitX=0;exitY=0.5;exitDx=0;exitDy=0;" edge="1" parent="1" source="76" target="18">
                    <mxGeometry width="50" height="50" relative="1" as="geometry">
                        <mxPoint x="976" y="480" as="sourcePoint"/>
                        <mxPoint x="1026" y="430" as="targetPoint"/>
                    </mxGeometry>
                </mxCell>
                <mxCell id="84" value="1" style="edgeLabel;html=1;align=center;verticalAlign=middle;resizable=0;points=[];fontSize=20;" vertex="1" connectable="0" parent="81">
                    <mxGeometry x="-0.3998" y="-4" relative="1" as="geometry">
                        <mxPoint x="1" as="offset"/>
                    </mxGeometry>
                </mxCell>
                <mxCell id="83" value="" style="endArrow=none;html=1;strokeColor=#f0f0f0;entryX=1;entryY=0.5;entryDx=0;entryDy=0;exitX=0;exitY=0.5;exitDx=0;exitDy=0;" edge="1" parent="1" source="77" target="76">
                    <mxGeometry width="50" height="50" relative="1" as="geometry">
                        <mxPoint x="1240" y="480" as="sourcePoint"/>
                        <mxPoint x="1290" y="430" as="targetPoint"/>
                    </mxGeometry>
                </mxCell>
                <mxCell id="85" value="n" style="edgeLabel;html=1;align=center;verticalAlign=middle;resizable=0;points=[];fontSize=20;" vertex="1" connectable="0" parent="83">
                    <mxGeometry x="-0.2686" y="-2" relative="1" as="geometry">
                        <mxPoint y="-1" as="offset"/>
                    </mxGeometry>
                </mxCell>
                <mxCell id="89" value="&lt;font style=&quot;font-size: 12px&quot;&gt;选择&lt;/font&gt;" style="rhombus;whiteSpace=wrap;html=1;fontSize=20;" vertex="1" parent="1">
                    <mxGeometry x="1071" y="620" width="129" height="80" as="geometry"/>
                </mxCell>
                <mxCell id="92" value="n" style="endArrow=none;html=1;fontSize=20;strokeColor=#f0f0f0;entryX=0;entryY=0.5;entryDx=0;entryDy=0;exitX=1;exitY=0;exitDx=0;exitDy=0;" edge="1" parent="1" source="33" target="89">
                    <mxGeometry width="50" height="50" relative="1" as="geometry">
                        <mxPoint x="980" y="690" as="sourcePoint"/>
                        <mxPoint x="950" y="570" as="targetPoint"/>
                    </mxGeometry>
                </mxCell>
                <mxCell id="93" value="1" style="endArrow=none;html=1;fontSize=20;strokeColor=#f0f0f0;entryX=0;entryY=1;entryDx=0;entryDy=0;exitX=1;exitY=0.5;exitDx=0;exitDy=0;" edge="1" parent="1" source="89" target="77">
                    <mxGeometry width="50" height="50" relative="1" as="geometry">
                        <mxPoint x="1320" y="620" as="sourcePoint"/>
                        <mxPoint x="1370" y="570" as="targetPoint"/>
                    </mxGeometry>
                </mxCell>
                <mxCell id="94" value="&lt;font style=&quot;font-size: 12px&quot;&gt;毕业设计进程&lt;/font&gt;" style="rounded=1;whiteSpace=wrap;html=1;fontSize=20;" vertex="1" parent="1">
                    <mxGeometry x="790" y="410" width="120" height="60" as="geometry"/>
                </mxCell>
                <mxCell id="105" value="1" style="edgeStyle=none;rounded=1;html=1;fontSize=20;strokeColor=#f0f0f0;" edge="1" parent="1" source="100" target="94">
                    <mxGeometry relative="1" as="geometry"/>
                </mxCell>
                <mxCell id="100" value="&lt;font style=&quot;font-size: 12px&quot;&gt;具有&lt;/font&gt;" style="rhombus;whiteSpace=wrap;html=1;fontSize=20;" vertex="1" parent="1">
                    <mxGeometry x="800" y="550" width="120" height="80" as="geometry"/>
                </mxCell>
                <mxCell id="104" value="1" style="endArrow=none;html=1;fontSize=20;strokeColor=#f0f0f0;entryX=0.5;entryY=1;entryDx=0;entryDy=0;exitX=0.5;exitY=0;exitDx=0;exitDy=0;" edge="1" parent="1" source="33" target="100">
                    <mxGeometry width="50" height="50" relative="1" as="geometry">
                        <mxPoint x="700" y="660" as="sourcePoint"/>
                        <mxPoint x="750" y="610" as="targetPoint"/>
                    </mxGeometry>
                </mxCell>
                <mxCell id="106" value="&lt;font style=&quot;font-size: 12px&quot;&gt;属于&lt;/font&gt;" style="rhombus;whiteSpace=wrap;html=1;fontSize=20;" vertex="1" parent="1">
                    <mxGeometry x="1095.5" y="432.5" width="110" height="80" as="geometry"/>
                </mxCell>
                <mxCell id="109" value="n" style="endArrow=none;html=1;fontSize=20;strokeColor=#f0f0f0;entryX=0;entryY=0.5;entryDx=0;entryDy=0;exitX=1;exitY=0.5;exitDx=0;exitDy=0;" edge="1" parent="1" source="94" target="106">
                    <mxGeometry width="50" height="50" relative="1" as="geometry">
                        <mxPoint x="1010" y="590" as="sourcePoint"/>
                        <mxPoint x="1060" y="540" as="targetPoint"/>
                    </mxGeometry>
                </mxCell>
                <mxCell id="110" value="1" style="endArrow=none;html=1;fontSize=20;strokeColor=#f0f0f0;entryX=0;entryY=0.75;entryDx=0;entryDy=0;exitX=1;exitY=0.5;exitDx=0;exitDy=0;" edge="1" parent="1" source="106" target="77">
                    <mxGeometry width="50" height="50" relative="1" as="geometry">
                        <mxPoint x="540" y="840" as="sourcePoint"/>
                        <mxPoint x="590" y="790" as="targetPoint"/>
                    </mxGeometry>
                </mxCell>
                <mxCell id="111" value="&lt;u&gt;id&lt;/u&gt;" style="ellipse;whiteSpace=wrap;html=1;fontSize=20;" vertex="1" parent="1">
                    <mxGeometry x="620" y="500" width="90" height="40" as="geometry"/>
                </mxCell>
                <mxCell id="112" value="进程状态" style="ellipse;whiteSpace=wrap;html=1;fontSize=12;" vertex="1" parent="1">
                    <mxGeometry x="587.5" y="440" width="90" height="60" as="geometry"/>
                </mxCell>
                <mxCell id="133" style="edgeStyle=none;rounded=1;html=1;entryX=0.5;entryY=1;entryDx=0;entryDy=0;fontSize=12;strokeColor=#f0f0f0;" edge="1" parent="1" target="77">
                    <mxGeometry relative="1" as="geometry">
                        <mxPoint x="1417.9855079942517" y="600.0202991287224" as="sourcePoint"/>
                    </mxGeometry>
                </mxCell>
                <mxCell id="113" value="&lt;u&gt;id&lt;/u&gt;" style="ellipse;whiteSpace=wrap;html=1;fontSize=12;" vertex="1" parent="1">
                    <mxGeometry x="1384" y="600" width="100" height="50" as="geometry"/>
                </mxCell>
                <mxCell id="128" style="edgeStyle=none;rounded=1;html=1;entryX=0.25;entryY=0;entryDx=0;entryDy=0;fontSize=12;strokeColor=#f0f0f0;strokeWidth=4;" edge="1" parent="1" source="114" target="77">
                    <mxGeometry relative="1" as="geometry"/>
                </mxCell>
                <mxCell id="114" value="论文名称" style="ellipse;whiteSpace=wrap;html=1;fontSize=12;" vertex="1" parent="1">
                    <mxGeometry x="1330" y="290" width="100" height="70" as="geometry"/>
                </mxCell>
                <mxCell id="137" style="edgeStyle=none;rounded=1;html=1;entryX=1;entryY=1;entryDx=0;entryDy=0;fontSize=12;strokeColor=#f0f0f0;strokeWidth=4;" edge="1" parent="1" target="77">
                    <mxGeometry relative="1" as="geometry">
                        <mxPoint x="1571.4304661822948" y="601.4304661822948" as="sourcePoint"/>
                    </mxGeometry>
                </mxCell>
                <mxCell id="116" value="论文题目" style="ellipse;whiteSpace=wrap;html=1;fontSize=12;" vertex="1" parent="1">
                    <mxGeometry x="1554" y="600" width="100" height="40" as="geometry"/>
                </mxCell>
                <mxCell id="134" style="edgeStyle=none;rounded=1;html=1;entryX=0.37;entryY=1;entryDx=0;entryDy=0;entryPerimeter=0;fontSize=12;strokeColor=#f0f0f0;" edge="1" parent="1" source="117" target="77">
                    <mxGeometry relative="1" as="geometry"/>
                </mxCell>
                <mxCell id="117" value="论文类型" style="ellipse;whiteSpace=wrap;html=1;fontSize=12;" vertex="1" parent="1">
                    <mxGeometry x="1324" y="680" width="110" height="50" as="geometry"/>
                </mxCell>
                <mxCell id="130" style="edgeStyle=none;rounded=1;html=1;exitX=0;exitY=0.5;exitDx=0;exitDy=0;entryX=1;entryY=0.5;entryDx=0;entryDy=0;fontSize=12;strokeColor=#f0f0f0;strokeWidth=4;" edge="1" parent="1" source="118" target="77">
                    <mxGeometry relative="1" as="geometry"/>
                </mxCell>
                <mxCell id="118" value="论文来源" style="ellipse;whiteSpace=wrap;html=1;fontSize=12;" vertex="1" parent="1">
                    <mxGeometry x="1510" y="445" width="110" height="55" as="geometry"/>
                </mxCell>
                <mxCell id="127" style="edgeStyle=none;rounded=1;html=1;entryX=0.25;entryY=0;entryDx=0;entryDy=0;fontSize=12;strokeColor=#f0f0f0;strokeWidth=4;" edge="1" parent="1" source="119" target="77">
                    <mxGeometry relative="1" as="geometry"/>
                </mxCell>
                <mxCell id="119" value="导师号" style="ellipse;whiteSpace=wrap;html=1;fontSize=12;" vertex="1" parent="1">
                    <mxGeometry x="1445" y="310" width="120" height="60" as="geometry"/>
                </mxCell>
                <mxCell id="135" style="edgeStyle=none;rounded=1;html=1;entryX=0.25;entryY=1;entryDx=0;entryDy=0;fontSize=12;strokeColor=#f0f0f0;" edge="1" parent="1" target="77">
                    <mxGeometry relative="1" as="geometry">
                        <mxPoint x="1317.3187041379579" y="601.8571057758181" as="sourcePoint"/>
                    </mxGeometry>
                </mxCell>
                <mxCell id="120" value="论文简介" style="ellipse;whiteSpace=wrap;html=1;fontSize=12;" vertex="1" parent="1">
                    <mxGeometry x="1264" y="600" width="100" height="60" as="geometry"/>
                </mxCell>
                <mxCell id="121" value="专业需求" style="ellipse;whiteSpace=wrap;html=1;fontSize=12;" vertex="1" parent="1">
                    <mxGeometry x="1434" y="670" width="110" height="50" as="geometry"/>
                </mxCell>
                <mxCell id="138" style="edgeStyle=none;rounded=1;html=1;entryX=1;entryY=1;entryDx=0;entryDy=0;fontSize=12;strokeColor=#f0f0f0;strokeWidth=4;" edge="1" parent="1" source="122" target="77">
                    <mxGeometry relative="1" as="geometry"/>
                </mxCell>
                <mxCell id="122" value="学生需求" style="ellipse;whiteSpace=wrap;html=1;fontSize=12;" vertex="1" parent="1">
                    <mxGeometry x="1534" y="660" width="115" height="50" as="geometry"/>
                </mxCell>
                <mxCell id="129" style="edgeStyle=none;rounded=1;html=1;entryX=0.5;entryY=0;entryDx=0;entryDy=0;fontSize=12;strokeColor=#f0f0f0;strokeWidth=4;" edge="1" parent="1" source="124" target="77">
                    <mxGeometry relative="1" as="geometry"/>
                </mxCell>
                <mxCell id="124" value="审核状态" style="ellipse;whiteSpace=wrap;html=1;fontSize=12;" vertex="1" parent="1">
                    <mxGeometry x="1490" y="380" width="110" height="60" as="geometry"/>
                </mxCell>
                <mxCell id="139" style="edgeStyle=none;rounded=1;html=1;entryX=1;entryY=0.75;entryDx=0;entryDy=0;fontSize=12;strokeColor=#f0f0f0;strokeWidth=4;" edge="1" parent="1" source="125" target="77">
                    <mxGeometry relative="1" as="geometry"/>
                </mxCell>
                <mxCell id="125" value="发布状态" style="ellipse;whiteSpace=wrap;html=1;fontSize=12;" vertex="1" parent="1">
                    <mxGeometry x="1535" y="505" width="100" height="55" as="geometry"/>
                </mxCell>
                <mxCell id="140" value="任务书" style="ellipse;whiteSpace=wrap;html=1;fontSize=12;" vertex="1" parent="1">
                    <mxGeometry x="575" y="380" width="115" height="50" as="geometry"/>
                </mxCell>
                <mxCell id="141" value="&lt;span style=&quot;font-size: 10.5pt ; font-family: &amp;#34;simsun&amp;#34;&quot;&gt;文献综述&lt;/span&gt;" style="ellipse;whiteSpace=wrap;html=1;fontSize=12;" vertex="1" parent="1">
                    <mxGeometry x="595" y="330" width="105" height="50" as="geometry"/>
                </mxCell>
                <mxCell id="142" value="&lt;span style=&quot;font-size: 10.5pt ; font-family: &amp;#34;simsun&amp;#34;&quot;&gt;开题报告&lt;/span&gt;" style="ellipse;whiteSpace=wrap;html=1;fontSize=12;" vertex="1" parent="1">
                    <mxGeometry x="675" y="290" width="100" height="45" as="geometry"/>
                </mxCell>
                <mxCell id="143" value="&lt;span style=&quot;font-size: 10.5pt ; font-family: &amp;#34;simsun&amp;#34;&quot;&gt;原文翻译&lt;/span&gt;" style="ellipse;whiteSpace=wrap;html=1;fontSize=12;" vertex="1" parent="1">
                    <mxGeometry x="675" y="540" width="115" height="50" as="geometry"/>
                </mxCell>
                <mxCell id="144" value="&lt;span style=&quot;font-size: 10.5pt ; font-family: &amp;#34;simsun&amp;#34;&quot;&gt;中期检查&lt;/span&gt;" style="ellipse;whiteSpace=wrap;html=1;fontSize=12;" vertex="1" parent="1">
                    <mxGeometry x="775" y="280" width="90" height="50" as="geometry"/>
                </mxCell>
                <mxCell id="145" value="&lt;span style=&quot;font-size: 10.5pt ; font-family: &amp;#34;simsun&amp;#34;&quot;&gt;论文评审&lt;/span&gt;" style="ellipse;whiteSpace=wrap;html=1;fontSize=12;" vertex="1" parent="1">
                    <mxGeometry x="865" y="300" width="95" height="50" as="geometry"/>
                </mxCell>
                <mxCell id="146" value="&lt;span style=&quot;font-size: 10.5pt ; font-family: &amp;#34;simsun&amp;#34;&quot;&gt;导师意见&lt;/span&gt;" style="ellipse;whiteSpace=wrap;html=1;fontSize=12;" vertex="1" parent="1">
                    <mxGeometry x="922.5" y="340" width="97.5" height="50" as="geometry"/>
                </mxCell>
                <mxCell id="147" value="&lt;span style=&quot;font-size: 10.5pt ; font-family: &amp;#34;simsun&amp;#34;&quot;&gt;论文答辩&lt;/span&gt;" style="ellipse;whiteSpace=wrap;html=1;fontSize=12;" vertex="1" parent="1">
                    <mxGeometry x="950" y="400" width="100" height="50" as="geometry"/>
                </mxCell>
                <mxCell id="148" value="" style="endArrow=none;html=1;fontSize=12;strokeColor=#f0f0f0;entryX=1;entryY=0;entryDx=0;entryDy=0;exitX=0.25;exitY=1;exitDx=0;exitDy=0;" edge="1" parent="1" source="94" target="143">
                    <mxGeometry width="50" height="50" relative="1" as="geometry">
                        <mxPoint x="360" y="890" as="sourcePoint"/>
                        <mxPoint x="410" y="840" as="targetPoint"/>
                    </mxGeometry>
                </mxCell>
                <mxCell id="149" value="" style="endArrow=none;html=1;fontSize=12;strokeColor=#f0f0f0;exitX=1;exitY=0;exitDx=0;exitDy=0;entryX=0;entryY=1;entryDx=0;entryDy=0;" edge="1" parent="1" source="111" target="94">
                    <mxGeometry width="50" height="50" relative="1" as="geometry">
                        <mxPoint x="730" y="500" as="sourcePoint"/>
                        <mxPoint x="780" y="450" as="targetPoint"/>
                    </mxGeometry>
                </mxCell>
                <mxCell id="150" value="" style="endArrow=none;html=1;fontSize=12;strokeColor=#f0f0f0;exitX=1;exitY=0.5;exitDx=0;exitDy=0;entryX=0;entryY=0.75;entryDx=0;entryDy=0;" edge="1" parent="1" source="112" target="94">
                    <mxGeometry width="50" height="50" relative="1" as="geometry">
                        <mxPoint x="720" y="470" as="sourcePoint"/>
                        <mxPoint x="770" y="420" as="targetPoint"/>
                    </mxGeometry>
                </mxCell>
                <mxCell id="151" value="" style="endArrow=none;html=1;fontSize=12;strokeColor=#f0f0f0;exitX=1;exitY=0.5;exitDx=0;exitDy=0;entryX=0;entryY=0.5;entryDx=0;entryDy=0;" edge="1" parent="1" source="140" target="94">
                    <mxGeometry width="50" height="50" relative="1" as="geometry">
                        <mxPoint x="730" y="440" as="sourcePoint"/>
                        <mxPoint x="780" y="390" as="targetPoint"/>
                    </mxGeometry>
                </mxCell>
                <mxCell id="152" value="" style="endArrow=none;html=1;fontSize=12;strokeColor=#f0f0f0;exitX=1;exitY=0.8;exitDx=0;exitDy=0;exitPerimeter=0;entryX=0;entryY=0.25;entryDx=0;entryDy=0;" edge="1" parent="1" source="141" target="94">
                    <mxGeometry width="50" height="50" relative="1" as="geometry">
                        <mxPoint x="750" y="410" as="sourcePoint"/>
                        <mxPoint x="800" y="360" as="targetPoint"/>
                    </mxGeometry>
                </mxCell>
                <mxCell id="153" value="" style="endArrow=none;html=1;fontSize=12;strokeColor=#f0f0f0;exitX=0.5;exitY=1;exitDx=0;exitDy=0;entryX=0;entryY=0;entryDx=0;entryDy=0;" edge="1" parent="1" source="142" target="94">
                    <mxGeometry width="50" height="50" relative="1" as="geometry">
                        <mxPoint x="770" y="400" as="sourcePoint"/>
                        <mxPoint x="820" y="350" as="targetPoint"/>
                    </mxGeometry>
                </mxCell>
                <mxCell id="154" value="" style="endArrow=none;html=1;fontSize=12;strokeColor=#f0f0f0;entryX=0.5;entryY=1;entryDx=0;entryDy=0;exitX=0.25;exitY=0;exitDx=0;exitDy=0;" edge="1" parent="1" source="94" target="144">
                    <mxGeometry width="50" height="50" relative="1" as="geometry">
                        <mxPoint x="790" y="400" as="sourcePoint"/>
                        <mxPoint x="840" y="350" as="targetPoint"/>
                    </mxGeometry>
                </mxCell>
                <mxCell id="155" value="" style="endArrow=none;html=1;fontSize=12;strokeColor=#f0f0f0;entryX=0;entryY=1;entryDx=0;entryDy=0;exitX=0.5;exitY=0;exitDx=0;exitDy=0;" edge="1" parent="1" source="94" target="145">
                    <mxGeometry width="50" height="50" relative="1" as="geometry">
                        <mxPoint x="830" y="410" as="sourcePoint"/>
                        <mxPoint x="880" y="360" as="targetPoint"/>
                    </mxGeometry>
                </mxCell>
                <mxCell id="156" value="" style="endArrow=none;html=1;fontSize=12;strokeColor=#f0f0f0;entryX=0;entryY=1;entryDx=0;entryDy=0;exitX=0.75;exitY=0;exitDx=0;exitDy=0;" edge="1" parent="1" source="94" target="146">
                    <mxGeometry width="50" height="50" relative="1" as="geometry">
                        <mxPoint x="870" y="420" as="sourcePoint"/>
                        <mxPoint x="920" y="370" as="targetPoint"/>
                    </mxGeometry>
                </mxCell>
                <mxCell id="157" value="" style="endArrow=none;html=1;fontSize=12;strokeColor=#f0f0f0;entryX=0;entryY=0.5;entryDx=0;entryDy=0;exitX=1;exitY=0.25;exitDx=0;exitDy=0;" edge="1" parent="1" source="94" target="147">
                    <mxGeometry width="50" height="50" relative="1" as="geometry">
                        <mxPoint x="930" y="560" as="sourcePoint"/>
                        <mxPoint x="980" y="510" as="targetPoint"/>
                    </mxGeometry>
                </mxCell>
                <mxCell id="158" value="" style="endArrow=none;html=1;strokeColor=#f0f0f0;exitX=1;exitY=0.5;exitDx=0;exitDy=0;entryX=0.25;entryY=0;entryDx=0;entryDy=0;" edge="1" parent="1">
                    <mxGeometry width="50" height="50" relative="1" as="geometry">
                        <mxPoint x="177.5" y="390" as="sourcePoint"/>
                        <mxPoint x="267.5" y="525" as="targetPoint"/>
                    </mxGeometry>
                </mxCell>
                <mxCell id="159" value="" style="endArrow=none;html=1;strokeColor=#f0f0f0;exitX=1.019;exitY=0.662;exitDx=0;exitDy=0;exitPerimeter=0;entryX=0;entryY=0;entryDx=0;entryDy=0;" edge="1" parent="1">
                    <mxGeometry width="50" height="50" relative="1" as="geometry">
                        <mxPoint x="169.7800000000002" y="492.96000000000004" as="sourcePoint"/>
                        <mxPoint x="237.5" y="525" as="targetPoint"/>
                    </mxGeometry>
                </mxCell>
                <mxCell id="160" value="" style="endArrow=none;html=1;strokeColor=#f0f0f0;exitX=1;exitY=0.5;exitDx=0;exitDy=0;entryX=0;entryY=0.25;entryDx=0;entryDy=0;" edge="1" parent="1">
                    <mxGeometry width="50" height="50" relative="1" as="geometry">
                        <mxPoint x="167.5" y="580" as="sourcePoint"/>
                        <mxPoint x="237.5" y="540" as="targetPoint"/>
                    </mxGeometry>
                </mxCell>
                <mxCell id="161" value="" style="endArrow=none;html=1;strokeColor=#f0f0f0;exitX=1;exitY=0;exitDx=0;exitDy=0;entryX=0;entryY=0.5;entryDx=0;entryDy=0;" edge="1" parent="1">
                    <mxGeometry width="50" height="50" relative="1" as="geometry">
                        <mxPoint x="189.92640687119274" y="641.7157287525381" as="sourcePoint"/>
                        <mxPoint x="237.5" y="555" as="targetPoint"/>
                    </mxGeometry>
                </mxCell>
                <mxCell id="162" value="" style="endArrow=none;html=1;strokeColor=#f0f0f0;exitX=0.5;exitY=0;exitDx=0;exitDy=0;entryX=0;entryY=1;entryDx=0;entryDy=0;" edge="1" parent="1">
                    <mxGeometry width="50" height="50" relative="1" as="geometry">
                        <mxPoint x="247.5" y="710" as="sourcePoint"/>
                        <mxPoint x="237.5" y="585" as="targetPoint"/>
                    </mxGeometry>
                </mxCell>
                <mxCell id="163" value="1" style="endArrow=none;html=1;strokeColor=#f0f0f0;exitX=0.75;exitY=1;exitDx=0;exitDy=0;entryX=0;entryY=0.5;entryDx=0;entryDy=0;fontSize=20;" edge="1" parent="1">
                    <mxGeometry width="50" height="50" relative="1" as="geometry">
                        <mxPoint x="327.5" y="585" as="sourcePoint"/>
                        <mxPoint x="477.5" y="710" as="targetPoint"/>
                    </mxGeometry>
                </mxCell>
                <mxCell id="164" value="1" style="endArrow=none;html=1;strokeColor=#f0f0f0;entryX=0;entryY=0.5;entryDx=0;entryDy=0;exitX=1;exitY=0.5;exitDx=0;exitDy=0;" edge="1" parent="1">
                    <mxGeometry width="50" height="50" relative="1" as="geometry">
                        <mxPoint x="607.5" y="710" as="sourcePoint"/>
                        <mxPoint x="800" y="730" as="targetPoint"/>
                    </mxGeometry>
                </mxCell>
                <mxCell id="165" style="edgeStyle=none;rounded=1;html=1;entryX=0;entryY=1;entryDx=0;entryDy=0;strokeColor=#f0f0f0;" edge="1" parent="1">
                    <mxGeometry relative="1" as="geometry">
                        <mxPoint x="743.2456521181493" y="771.5113224753857" as="sourcePoint"/>
                        <mxPoint x="800" y="760" as="targetPoint"/>
                    </mxGeometry>
                </mxCell>
                <mxCell id="166" value="" style="endArrow=none;html=1;strokeColor=#f0f0f0;exitX=1;exitY=0.5;exitDx=0;exitDy=0;entryX=0.25;entryY=0;entryDx=0;entryDy=0;" edge="1" parent="1">
                    <mxGeometry width="50" height="50" relative="1" as="geometry">
                        <mxPoint x="180" y="390" as="sourcePoint"/>
                        <mxPoint x="270" y="525" as="targetPoint"/>
                    </mxGeometry>
                </mxCell>
                <mxCell id="167" value="" style="endArrow=none;html=1;strokeColor=#f0f0f0;exitX=1.019;exitY=0.662;exitDx=0;exitDy=0;exitPerimeter=0;entryX=0;entryY=0;entryDx=0;entryDy=0;" edge="1" parent="1">
                    <mxGeometry width="50" height="50" relative="1" as="geometry">
                        <mxPoint x="172.2800000000002" y="492.96000000000004" as="sourcePoint"/>
                        <mxPoint x="240" y="525" as="targetPoint"/>
                    </mxGeometry>
                </mxCell>
                <mxCell id="168" value="" style="endArrow=none;html=1;strokeColor=#f0f0f0;exitX=1;exitY=0.5;exitDx=0;exitDy=0;entryX=0;entryY=0.25;entryDx=0;entryDy=0;" edge="1" parent="1">
                    <mxGeometry width="50" height="50" relative="1" as="geometry">
                        <mxPoint x="170" y="580" as="sourcePoint"/>
                        <mxPoint x="240" y="540" as="targetPoint"/>
                    </mxGeometry>
                </mxCell>
                <mxCell id="169" value="" style="endArrow=none;html=1;strokeColor=#f0f0f0;exitX=1;exitY=0;exitDx=0;exitDy=0;entryX=0;entryY=0.5;entryDx=0;entryDy=0;" edge="1" parent="1">
                    <mxGeometry width="50" height="50" relative="1" as="geometry">
                        <mxPoint x="192.42640687119274" y="641.7157287525381" as="sourcePoint"/>
                        <mxPoint x="240" y="555" as="targetPoint"/>
                    </mxGeometry>
                </mxCell>
                <mxCell id="170" value="" style="endArrow=none;html=1;strokeColor=#f0f0f0;exitX=0.5;exitY=0;exitDx=0;exitDy=0;entryX=0;entryY=1;entryDx=0;entryDy=0;" edge="1" parent="1">
                    <mxGeometry width="50" height="50" relative="1" as="geometry">
                        <mxPoint x="250" y="710" as="sourcePoint"/>
                        <mxPoint x="240" y="585" as="targetPoint"/>
                    </mxGeometry>
                </mxCell>
                <mxCell id="171" value="1" style="endArrow=none;html=1;strokeColor=#f0f0f0;exitX=0.75;exitY=1;exitDx=0;exitDy=0;entryX=0;entryY=0.5;entryDx=0;entryDy=0;fontSize=20;" edge="1" parent="1">
                    <mxGeometry width="50" height="50" relative="1" as="geometry">
                        <mxPoint x="330" y="585" as="sourcePoint"/>
                        <mxPoint x="480" y="710" as="targetPoint"/>
                    </mxGeometry>
                </mxCell>
                <mxCell id="172" value="1" style="endArrow=none;html=1;strokeColor=#f0f0f0;entryX=0;entryY=0.5;entryDx=0;entryDy=0;exitX=1;exitY=0.5;exitDx=0;exitDy=0;" edge="1" parent="1">
                    <mxGeometry width="50" height="50" relative="1" as="geometry">
                        <mxPoint x="610" y="710" as="sourcePoint"/>
                        <mxPoint x="802.5" y="730" as="targetPoint"/>
                    </mxGeometry>
                </mxCell>
                <mxCell id="173" style="edgeStyle=none;rounded=1;html=1;entryX=0;entryY=1;entryDx=0;entryDy=0;strokeColor=#f0f0f0;" edge="1" parent="1">
                    <mxGeometry relative="1" as="geometry">
                        <mxPoint x="745.7456521181493" y="771.5113224753857" as="sourcePoint"/>
                        <mxPoint x="802.5" y="760" as="targetPoint"/>
                    </mxGeometry>
                </mxCell>
                <mxCell id="174" style="edgeStyle=none;rounded=1;html=1;entryX=0.25;entryY=1;entryDx=0;entryDy=0;strokeColor=#f0f0f0;" edge="1" parent="1">
                    <mxGeometry relative="1" as="geometry">
                        <mxPoint x="772.7161244602948" y="812.7423327777974" as="sourcePoint"/>
                        <mxPoint x="835" y="760" as="targetPoint"/>
                    </mxGeometry>
                </mxCell>
                <mxCell id="175" style="edgeStyle=none;rounded=1;html=1;entryX=0.5;entryY=1;entryDx=0;entryDy=0;strokeColor=#f0f0f0;" edge="1" parent="1">
                    <mxGeometry relative="1" as="geometry">
                        <mxPoint x="812.9960440795403" y="855.700822176329" as="sourcePoint"/>
                        <mxPoint x="865" y="760" as="targetPoint"/>
                    </mxGeometry>
                </mxCell>
                <mxCell id="176" value="" style="endArrow=none;html=1;strokeColor=#f0f0f0;exitX=1;exitY=0.5;exitDx=0;exitDy=0;entryX=0.25;entryY=0;entryDx=0;entryDy=0;strokeWidth=4;" edge="1" parent="1">
                    <mxGeometry width="50" height="50" relative="1" as="geometry">
                        <mxPoint x="181.15" y="390" as="sourcePoint"/>
                        <mxPoint x="271.15" y="525" as="targetPoint"/>
                    </mxGeometry>
                </mxCell>
                <mxCell id="177" value="" style="endArrow=none;html=1;strokeColor=#f0f0f0;exitX=1.019;exitY=0.662;exitDx=0;exitDy=0;exitPerimeter=0;entryX=0;entryY=0;entryDx=0;entryDy=0;strokeWidth=4;" edge="1" parent="1">
                    <mxGeometry width="50" height="50" relative="1" as="geometry">
                        <mxPoint x="173.4300000000002" y="492.96000000000004" as="sourcePoint"/>
                        <mxPoint x="241.15" y="525" as="targetPoint"/>
                    </mxGeometry>
                </mxCell>
                <mxCell id="178" value="" style="endArrow=none;html=1;strokeColor=#f0f0f0;exitX=1;exitY=0.5;exitDx=0;exitDy=0;entryX=0;entryY=0.25;entryDx=0;entryDy=0;strokeWidth=4;" edge="1" parent="1">
                    <mxGeometry width="50" height="50" relative="1" as="geometry">
                        <mxPoint x="171.15" y="580" as="sourcePoint"/>
                        <mxPoint x="241.15" y="540" as="targetPoint"/>
                    </mxGeometry>
                </mxCell>
                <mxCell id="179" value="" style="endArrow=none;html=1;strokeColor=#f0f0f0;exitX=1;exitY=0;exitDx=0;exitDy=0;entryX=0;entryY=0.5;entryDx=0;entryDy=0;strokeWidth=4;" edge="1" parent="1">
                    <mxGeometry width="50" height="50" relative="1" as="geometry">
                        <mxPoint x="193.57640687119275" y="641.7157287525381" as="sourcePoint"/>
                        <mxPoint x="241.15" y="555" as="targetPoint"/>
                    </mxGeometry>
                </mxCell>
                <mxCell id="180" value="" style="endArrow=none;html=1;strokeColor=#f0f0f0;exitX=0.5;exitY=0;exitDx=0;exitDy=0;entryX=0;entryY=1;entryDx=0;entryDy=0;strokeWidth=4;" edge="1" parent="1">
                    <mxGeometry width="50" height="50" relative="1" as="geometry">
                        <mxPoint x="251.15" y="710" as="sourcePoint"/>
                        <mxPoint x="241.15" y="585" as="targetPoint"/>
                    </mxGeometry>
                </mxCell>
                <mxCell id="181" value="1" style="endArrow=none;html=1;strokeColor=#f0f0f0;exitX=0.75;exitY=1;exitDx=0;exitDy=0;entryX=0;entryY=0.5;entryDx=0;entryDy=0;fontSize=20;strokeWidth=4;" edge="1" parent="1">
                    <mxGeometry width="50" height="50" relative="1" as="geometry">
                        <mxPoint x="331.15" y="585" as="sourcePoint"/>
                        <mxPoint x="481.15" y="710" as="targetPoint"/>
                    </mxGeometry>
                </mxCell>
                <mxCell id="182" value="1" style="endArrow=none;html=1;strokeColor=#f0f0f0;entryX=0;entryY=0.5;entryDx=0;entryDy=0;exitX=1;exitY=0.5;exitDx=0;exitDy=0;strokeWidth=4;" edge="1" parent="1">
                    <mxGeometry width="50" height="50" relative="1" as="geometry">
                        <mxPoint x="611.15" y="710" as="sourcePoint"/>
                        <mxPoint x="803.65" y="730" as="targetPoint"/>
                    </mxGeometry>
                </mxCell>
                <mxCell id="183" style="edgeStyle=none;rounded=1;html=1;entryX=0;entryY=1;entryDx=0;entryDy=0;strokeColor=#f0f0f0;strokeWidth=4;" edge="1" parent="1">
                    <mxGeometry relative="1" as="geometry">
                        <mxPoint x="746.8956521181493" y="771.5113224753857" as="sourcePoint"/>
                        <mxPoint x="803.65" y="760" as="targetPoint"/>
                    </mxGeometry>
                </mxCell>
                <mxCell id="184" style="edgeStyle=none;rounded=1;html=1;entryX=0.25;entryY=1;entryDx=0;entryDy=0;strokeColor=#f0f0f0;strokeWidth=4;" edge="1" parent="1">
                    <mxGeometry relative="1" as="geometry">
                        <mxPoint x="773.8661244602948" y="812.7423327777974" as="sourcePoint"/>
                        <mxPoint x="836.15" y="760" as="targetPoint"/>
                    </mxGeometry>
                </mxCell>
                <mxCell id="185" style="edgeStyle=none;rounded=1;html=1;entryX=0.5;entryY=1;entryDx=0;entryDy=0;strokeColor=#f0f0f0;strokeWidth=4;" edge="1" parent="1">
                    <mxGeometry relative="1" as="geometry">
                        <mxPoint x="814.1460440795403" y="855.700822176329" as="sourcePoint"/>
                        <mxPoint x="866.15" y="760" as="targetPoint"/>
                    </mxGeometry>
                </mxCell>
                <mxCell id="186" style="edgeStyle=none;rounded=1;html=1;exitX=0;exitY=1;exitDx=0;exitDy=0;entryX=0.75;entryY=1;entryDx=0;entryDy=0;strokeColor=#f0f0f0;strokeWidth=4;" edge="1" parent="1">
                    <mxGeometry relative="1" as="geometry">
                        <mxPoint x="954.0396213334205" y="927.5147519999523" as="sourcePoint"/>
                        <mxPoint x="893.65" y="760" as="targetPoint"/>
                    </mxGeometry>
                </mxCell>
                <mxCell id="187" style="edgeStyle=none;rounded=1;html=1;entryX=0.667;entryY=1;entryDx=0;entryDy=0;entryPerimeter=0;strokeColor=#f0f0f0;strokeWidth=4;" edge="1" parent="1">
                    <mxGeometry relative="1" as="geometry">
                        <mxPoint x="881.4972091399899" y="880.0009419207345" as="sourcePoint"/>
                        <mxPoint x="883.6899999999999" y="760" as="targetPoint"/>
                    </mxGeometry>
                </mxCell>
                <mxCell id="188" style="edgeStyle=none;rounded=1;html=1;entryX=1;entryY=1;entryDx=0;entryDy=0;strokeColor=#f0f0f0;strokeWidth=4;" edge="1" parent="1">
                    <mxGeometry relative="1" as="geometry">
                        <mxPoint x="1053.900582470219" y="859.0389095924761" as="sourcePoint"/>
                        <mxPoint x="923.65" y="760" as="targetPoint"/>
                    </mxGeometry>
                </mxCell>
                <mxCell id="189" style="edgeStyle=none;rounded=1;html=1;entryX=1;entryY=0.75;entryDx=0;entryDy=0;strokeColor=#f0f0f0;strokeWidth=4;" edge="1" parent="1">
                    <mxGeometry relative="1" as="geometry">
                        <mxPoint x="1099.1262641916264" y="812.7927059609119" as="sourcePoint"/>
                        <mxPoint x="923.65" y="745" as="targetPoint"/>
                    </mxGeometry>
                </mxCell>
                <mxCell id="190" style="edgeStyle=none;rounded=1;html=1;entryX=1;entryY=0.5;entryDx=0;entryDy=0;strokeColor=#f0f0f0;strokeWidth=4;" edge="1" parent="1">
                    <mxGeometry relative="1" as="geometry">
                        <mxPoint x="1093.3787494618582" y="753.3571673571364" as="sourcePoint"/>
                        <mxPoint x="923.65" y="730" as="targetPoint"/>
                    </mxGeometry>
                </mxCell>
                <mxCell id="192" value="1" style="endArrow=none;html=1;fontSize=20;strokeColor=#f0f0f0;entryX=0.5;entryY=1;entryDx=0;entryDy=0;exitX=0.5;exitY=0;exitDx=0;exitDy=0;strokeWidth=4;" edge="1" parent="1">
                    <mxGeometry width="50" height="50" relative="1" as="geometry">
                        <mxPoint x="863.65" y="700" as="sourcePoint"/>
                        <mxPoint x="861.15" y="630" as="targetPoint"/>
                    </mxGeometry>
                </mxCell>
                <mxCell id="193" value="1" style="edgeStyle=none;rounded=1;html=1;fontSize=20;strokeColor=#f0f0f0;strokeWidth=4;" edge="1" parent="1">
                    <mxGeometry relative="1" as="geometry">
                        <mxPoint x="858.5968085106382" y="551.7021276595744" as="sourcePoint"/>
                        <mxPoint x="853.15" y="470" as="targetPoint"/>
                    </mxGeometry>
                </mxCell>
                <mxCell id="194" value="" style="endArrow=none;html=1;fontSize=12;strokeColor=#f0f0f0;entryX=1;entryY=0;entryDx=0;entryDy=0;exitX=0.25;exitY=1;exitDx=0;exitDy=0;strokeWidth=4;" edge="1" parent="1">
                    <mxGeometry width="50" height="50" relative="1" as="geometry">
                        <mxPoint x="821.15" y="470" as="sourcePoint"/>
                        <mxPoint x="774.600088402732" y="547.4499621131151" as="targetPoint"/>
                    </mxGeometry>
                </mxCell>
                <mxCell id="195" value="" style="endArrow=none;html=1;fontSize=12;strokeColor=#f0f0f0;exitX=1;exitY=0;exitDx=0;exitDy=0;entryX=0;entryY=1;entryDx=0;entryDy=0;strokeWidth=4;" edge="1" parent="1">
                    <mxGeometry width="50" height="50" relative="1" as="geometry">
                        <mxPoint x="697.6102934365384" y="505.6998666197551" as="sourcePoint"/>
                        <mxPoint x="791.15" y="470" as="targetPoint"/>
                    </mxGeometry>
                </mxCell>
                <mxCell id="196" value="" style="endArrow=none;html=1;fontSize=12;strokeColor=#f0f0f0;exitX=1;exitY=0.5;exitDx=0;exitDy=0;entryX=0;entryY=0.75;entryDx=0;entryDy=0;strokeWidth=4;" edge="1" parent="1">
                    <mxGeometry width="50" height="50" relative="1" as="geometry">
                        <mxPoint x="678.65" y="470" as="sourcePoint"/>
                        <mxPoint x="791.15" y="455" as="targetPoint"/>
                    </mxGeometry>
                </mxCell>
                <mxCell id="197" value="" style="endArrow=none;html=1;fontSize=12;strokeColor=#f0f0f0;exitX=1;exitY=0.5;exitDx=0;exitDy=0;entryX=0;entryY=0.5;entryDx=0;entryDy=0;strokeWidth=4;" edge="1" parent="1">
                    <mxGeometry width="50" height="50" relative="1" as="geometry">
                        <mxPoint x="691.15" y="405" as="sourcePoint"/>
                        <mxPoint x="791.15" y="440" as="targetPoint"/>
                    </mxGeometry>
                </mxCell>
                <mxCell id="198" value="" style="endArrow=none;html=1;fontSize=12;strokeColor=#f0f0f0;exitX=1;exitY=0.8;exitDx=0;exitDy=0;exitPerimeter=0;entryX=0;entryY=0.25;entryDx=0;entryDy=0;strokeWidth=4;" edge="1" parent="1">
                    <mxGeometry width="50" height="50" relative="1" as="geometry">
                        <mxPoint x="701.15" y="370" as="sourcePoint"/>
                        <mxPoint x="791.15" y="425" as="targetPoint"/>
                    </mxGeometry>
                </mxCell>
                <mxCell id="199" value="" style="endArrow=none;html=1;fontSize=12;strokeColor=#f0f0f0;exitX=0.5;exitY=1;exitDx=0;exitDy=0;entryX=0;entryY=0;entryDx=0;entryDy=0;strokeWidth=4;" edge="1" parent="1">
                    <mxGeometry width="50" height="50" relative="1" as="geometry">
                        <mxPoint x="726.15" y="335" as="sourcePoint"/>
                        <mxPoint x="791.15" y="410" as="targetPoint"/>
                    </mxGeometry>
                </mxCell>
                <mxCell id="200" value="" style="endArrow=none;html=1;fontSize=12;strokeColor=#f0f0f0;entryX=0.5;entryY=1;entryDx=0;entryDy=0;exitX=0.25;exitY=0;exitDx=0;exitDy=0;strokeWidth=4;" edge="1" parent="1">
                    <mxGeometry width="50" height="50" relative="1" as="geometry">
                        <mxPoint x="821.15" y="410" as="sourcePoint"/>
                        <mxPoint x="821.15" y="330" as="targetPoint"/>
                    </mxGeometry>
                </mxCell>
                <mxCell id="201" value="" style="endArrow=none;html=1;fontSize=12;strokeColor=#f0f0f0;entryX=0;entryY=1;entryDx=0;entryDy=0;exitX=0.5;exitY=0;exitDx=0;exitDy=0;strokeWidth=4;" edge="1" parent="1">
                    <mxGeometry width="50" height="50" relative="1" as="geometry">
                        <mxPoint x="851.15" y="410" as="sourcePoint"/>
                        <mxPoint x="879.9160789084711" y="342.6003066564499" as="targetPoint"/>
                    </mxGeometry>
                </mxCell>
                <mxCell id="202" value="" style="endArrow=none;html=1;fontSize=12;strokeColor=#f0f0f0;entryX=0;entryY=1;entryDx=0;entryDy=0;exitX=0.75;exitY=0;exitDx=0;exitDy=0;strokeWidth=4;" edge="1" parent="1">
                    <mxGeometry width="50" height="50" relative="1" as="geometry">
                        <mxPoint x="881.15" y="410" as="sourcePoint"/>
                        <mxPoint x="937.4949931935324" y="382.4525034032338" as="targetPoint"/>
                    </mxGeometry>
                </mxCell>
                <mxCell id="203" value="" style="endArrow=none;html=1;fontSize=12;strokeColor=#f0f0f0;entryX=0;entryY=0.5;entryDx=0;entryDy=0;exitX=1;exitY=0.25;exitDx=0;exitDy=0;strokeWidth=4;" edge="1" parent="1">
                    <mxGeometry width="50" height="50" relative="1" as="geometry">
                        <mxPoint x="911.15" y="425" as="sourcePoint"/>
                        <mxPoint x="951.15" y="425" as="targetPoint"/>
                    </mxGeometry>
                </mxCell>
                <mxCell id="204" value="n" style="endArrow=none;html=1;fontSize=20;strokeColor=#f0f0f0;entryX=0;entryY=0.5;entryDx=0;entryDy=0;exitX=1;exitY=0.5;exitDx=0;exitDy=0;strokeWidth=4;" edge="1" parent="1">
                    <mxGeometry width="50" height="50" relative="1" as="geometry">
                        <mxPoint x="911.15" y="440" as="sourcePoint"/>
                        <mxPoint x="1096.65" y="472.5" as="targetPoint"/>
                    </mxGeometry>
                </mxCell>
                <mxCell id="205" value="1" style="endArrow=none;html=1;fontSize=20;strokeColor=#f0f0f0;entryX=0;entryY=0.75;entryDx=0;entryDy=0;exitX=1;exitY=0.5;exitDx=0;exitDy=0;strokeWidth=4;" edge="1" parent="1">
                    <mxGeometry width="50" height="50" relative="1" as="geometry">
                        <mxPoint x="1206.65" y="472.5" as="sourcePoint"/>
                        <mxPoint x="1351.15" y="485" as="targetPoint"/>
                    </mxGeometry>
                </mxCell>
                <mxCell id="206" value="" style="endArrow=none;html=1;strokeColor=#f0f0f0;entryX=1;entryY=0.5;entryDx=0;entryDy=0;exitX=0;exitY=0.5;exitDx=0;exitDy=0;strokeWidth=4;" edge="1" parent="1">
                    <mxGeometry width="50" height="50" relative="1" as="geometry">
                        <mxPoint x="1351.15" y="470" as="sourcePoint"/>
                        <mxPoint x="1212.15" y="360" as="targetPoint"/>
                    </mxGeometry>
                </mxCell>
                <mxCell id="207" value="n" style="edgeLabel;html=1;align=center;verticalAlign=middle;resizable=0;points=[];fontSize=20;" vertex="1" connectable="0" parent="206">
                    <mxGeometry x="-0.2686" y="-2" relative="1" as="geometry">
                        <mxPoint y="-1" as="offset"/>
                    </mxGeometry>
                </mxCell>
                <mxCell id="208" value="" style="endArrow=none;html=1;strokeColor=#f0f0f0;entryX=0.5;entryY=1;entryDx=0;entryDy=0;exitX=0;exitY=0.5;exitDx=0;exitDy=0;strokeWidth=4;" edge="1" parent="1">
                    <mxGeometry width="50" height="50" relative="1" as="geometry">
                        <mxPoint x="1091.15" y="360" as="sourcePoint"/>
                        <mxPoint x="916.15" y="260" as="targetPoint"/>
                    </mxGeometry>
                </mxCell>
                <mxCell id="209" value="1" style="edgeLabel;html=1;align=center;verticalAlign=middle;resizable=0;points=[];fontSize=20;" vertex="1" connectable="0" parent="208">
                    <mxGeometry x="-0.3998" y="-4" relative="1" as="geometry">
                        <mxPoint x="1" as="offset"/>
                    </mxGeometry>
                </mxCell>
                <mxCell id="210" value="1" style="endArrow=none;html=1;strokeColor=#f0f0f0;entryX=1;entryY=0.5;entryDx=0;entryDy=0;exitX=0;exitY=0.5;exitDx=0;exitDy=0;strokeWidth=4;" edge="1" parent="1">
                    <mxGeometry width="50" height="50" relative="1" as="geometry">
                        <mxPoint x="856.15" y="230" as="sourcePoint"/>
                        <mxPoint x="531.15" y="205" as="targetPoint"/>
                    </mxGeometry>
                </mxCell>
                <mxCell id="211" style="edgeStyle=none;rounded=1;html=1;entryX=0;entryY=0.25;entryDx=0;entryDy=0;strokeColor=#f0f0f0;strokeWidth=4;" edge="1" parent="1">
                    <mxGeometry relative="1" as="geometry">
                        <mxPoint x="760.216332668156" y="178.1024356415985" as="sourcePoint"/>
                        <mxPoint x="856.15" y="215" as="targetPoint"/>
                    </mxGeometry>
                </mxCell>
                <mxCell id="212" style="edgeStyle=none;rounded=1;html=1;entryX=0;entryY=0;entryDx=0;entryDy=0;strokeColor=#f0f0f0;strokeWidth=4;" edge="1" parent="1">
                    <mxGeometry relative="1" as="geometry">
                        <mxPoint x="802.5710045443219" y="138.76686233636792" as="sourcePoint"/>
                        <mxPoint x="856.15" y="200" as="targetPoint"/>
                    </mxGeometry>
                </mxCell>
                <mxCell id="213" style="edgeStyle=none;rounded=1;html=1;entryX=0.112;entryY=-0.029;entryDx=0;entryDy=0;entryPerimeter=0;strokeColor=#f0f0f0;strokeWidth=4;" edge="1" parent="1">
                    <mxGeometry relative="1" as="geometry">
                        <mxPoint x="821.9221004488489" y="89.51581481462108" as="sourcePoint"/>
                        <mxPoint x="869.59" y="198.26" as="targetPoint"/>
                    </mxGeometry>
                </mxCell>
                <mxCell id="214" style="edgeStyle=none;rounded=1;html=1;entryX=0.25;entryY=0;entryDx=0;entryDy=0;strokeColor=#f0f0f0;strokeWidth=4;" edge="1" parent="1">
                    <mxGeometry relative="1" as="geometry">
                        <mxPoint x="888.0547967615802" y="139.99853601361974" as="sourcePoint"/>
                        <mxPoint x="886.15" y="200" as="targetPoint"/>
                    </mxGeometry>
                </mxCell>
                <mxCell id="215" style="edgeStyle=none;rounded=1;html=1;entryX=0.5;entryY=0;entryDx=0;entryDy=0;strokeColor=#f0f0f0;exitX=0.5;exitY=1;exitDx=0;exitDy=0;strokeWidth=4;" edge="1" parent="1">
                    <mxGeometry relative="1" as="geometry">
                        <mxPoint x="931.15" y="65" as="sourcePoint"/>
                        <mxPoint x="916.15" y="200" as="targetPoint"/>
                    </mxGeometry>
                </mxCell>
                <mxCell id="216" style="edgeStyle=none;rounded=1;html=1;entryX=0.75;entryY=0;entryDx=0;entryDy=0;strokeColor=#f0f0f0;strokeWidth=4;" edge="1" parent="1">
                    <mxGeometry relative="1" as="geometry">
                        <mxPoint x="981.2700866245181" y="134.22156964768237" as="sourcePoint"/>
                        <mxPoint x="946.15" y="200" as="targetPoint"/>
                    </mxGeometry>
                </mxCell>
                <mxCell id="217" style="edgeStyle=none;rounded=1;html=1;entryX=1;entryY=0;entryDx=0;entryDy=0;strokeColor=#f0f0f0;strokeWidth=4;" edge="1" parent="1">
                    <mxGeometry relative="1" as="geometry">
                        <mxPoint x="1049.1236506351888" y="154.15378783674396" as="sourcePoint"/>
                        <mxPoint x="976.15" y="200" as="targetPoint"/>
                    </mxGeometry>
                </mxCell>
                <mxCell id="218" style="edgeStyle=none;rounded=1;html=1;entryX=1;entryY=0.5;entryDx=0;entryDy=0;strokeColor=#f0f0f0;strokeWidth=4;" edge="1" parent="1">
                    <mxGeometry relative="1" as="geometry">
                        <mxPoint x="1070.2170508532663" y="205.3859721715594" as="sourcePoint"/>
                        <mxPoint x="976.15" y="230" as="targetPoint"/>
                    </mxGeometry>
                </mxCell>
                <mxCell id="220" style="edgeStyle=none;rounded=1;html=1;entryX=0.25;entryY=1;entryDx=0;entryDy=0;fontSize=12;strokeColor=#f0f0f0;strokeWidth=4;" edge="1" parent="1">
                    <mxGeometry relative="1" as="geometry">
                        <mxPoint x="1318.468704137958" y="601.8571057758181" as="sourcePoint"/>
                        <mxPoint x="1381.15" y="500" as="targetPoint"/>
                    </mxGeometry>
                </mxCell>
                <mxCell id="221" style="edgeStyle=none;rounded=1;html=1;entryX=0.37;entryY=1;entryDx=0;entryDy=0;entryPerimeter=0;fontSize=12;strokeColor=#f0f0f0;strokeWidth=4;" edge="1" parent="1">
                    <mxGeometry relative="1" as="geometry">
                        <mxPoint x="1381.864852130439" y="680.0121546707451" as="sourcePoint"/>
                        <mxPoint x="1395.5500000000002" y="500" as="targetPoint"/>
                    </mxGeometry>
                </mxCell>
                <mxCell id="222" style="edgeStyle=none;rounded=1;html=1;entryX=0.5;entryY=1;entryDx=0;entryDy=0;fontSize=12;strokeColor=#f0f0f0;strokeWidth=4;" edge="1" parent="1">
                    <mxGeometry relative="1" as="geometry">
                        <mxPoint x="1419.1355079942518" y="600.0202991287224" as="sourcePoint"/>
                        <mxPoint x="1411.15" y="500" as="targetPoint"/>
                    </mxGeometry>
                </mxCell>
                <mxCell id="223" style="edgeStyle=none;rounded=1;html=1;entryX=0.75;entryY=1;entryDx=0;entryDy=0;fontSize=12;strokeColor=#f0f0f0;strokeWidth=4;" edge="1" parent="1">
                    <mxGeometry relative="1" as="geometry">
                        <mxPoint x="1484.0031843575948" y="670.1566201119458" as="sourcePoint"/>
                        <mxPoint x="1441.15" y="500" as="targetPoint"/>
                    </mxGeometry>
                </mxCell>
                <mxCell id="228" style="edgeStyle=none;rounded=1;html=1;fontSize=12;strokeColor=#f0f0f0;strokeWidth=4;" edge="1" parent="1" source="224" target="89">
                    <mxGeometry relative="1" as="geometry"/>
                </mxCell>
                <mxCell id="224" value="发布" style="ellipse;whiteSpace=wrap;html=1;fontSize=12;" vertex="1" parent="1">
                    <mxGeometry x="950" y="594" width="90" height="52" as="geometry"/>
                </mxCell>
                <mxCell id="230" style="edgeStyle=none;rounded=1;html=1;entryX=0.5;entryY=0;entryDx=0;entryDy=0;fontSize=12;strokeColor=#f0f0f0;strokeWidth=4;" edge="1" parent="1" source="225" target="89">
                    <mxGeometry relative="1" as="geometry"/>
                </mxCell>
                <mxCell id="225" value="系主任认可" style="ellipse;whiteSpace=wrap;html=1;fontSize=12;" vertex="1" parent="1">
                    <mxGeometry x="1110" y="520" width="120" height="70" as="geometry"/>
                </mxCell>
                <mxCell id="229" style="edgeStyle=none;rounded=1;html=1;entryX=0;entryY=0;entryDx=0;entryDy=0;fontSize=12;strokeColor=#f0f0f0;strokeWidth=4;" edge="1" parent="1" source="226" target="89">
                    <mxGeometry relative="1" as="geometry"/>
                </mxCell>
                <mxCell id="226" value="导师认可" style="ellipse;whiteSpace=wrap;html=1;fontSize=12;" vertex="1" parent="1">
                    <mxGeometry x="984.5" y="530" width="111" height="60" as="geometry"/>
                </mxCell>
            </root>
        </mxGraphModel>
    </diagram>
</mxfile>